<svg id="Layer_1" data-name="Layer 1" xmlns="http://www.w3.org/2000/svg" viewBox="0 0 328.59 373.86"><defs><style>.cls-1,.cls-2{fill:red;}.cls-2{font-size:260.98px;font-family:Apple-Chancery, Apple Chancery;}</style></defs><title>Artboard 1</title><path d="M164.29,322.83C75.36,322.83,3,251.09,3,162.91S75.36,3,164.29,3,325.59,74.74,325.59,162.91,253.23,322.83,164.29,322.83Z"/><path class="cls-1" d="M164.29,6A158,158,0,0,1,276.24,52a155.95,155.95,0,0,1,0,221.87,159.28,159.28,0,0,1-223.9,0A155.95,155.95,0,0,1,52.35,52,158,158,0,0,1,164.29,6m0-6C73.56,0,0,72.94,0,162.91S73.56,325.83,164.29,325.83s164.29-72.94,164.29-162.91S255,0,164.29,0Z"/><text class="cls-2" transform="translate(56.87 252.55) scale(1.01 1)">F</text></svg>