<?xml version="1.0" encoding="iso-8859-1"?>
<!-- Generator: Adobe Illustrator 14.0.0, SVG Export Plug-In . SVG Version: 6.00 Build 43363)  -->
<!DOCTYPE svg PUBLIC "-//W3C//DTD SVG 1.1//EN" "http://www.w3.org/Graphics/SVG/1.1/DTD/svg11.dtd">
<svg version="1.1" id="Layer_1" xmlns="http://www.w3.org/2000/svg" xmlns:xlink="http://www.w3.org/1999/xlink" x="0px" y="0px"
	 width="133.805px" height="133.632px" viewBox="0 0 133.805 133.632" style="enable-background:new 0 0 133.805 133.632;"
	 xml:space="preserve">
<circle style="fill:#212121;" cx="67.381" cy="66.381" r="64.381"/>
<g>
	<path style="fill:#FFEC38;" d="M33.949,86.63c0.183,3.734,1.434,5.602,3.752,5.602c2.592,0,4.316-1.785,5.17-5.354l7.501-32.487
		c1.922-8.357,5.582-14.977,10.983-19.857c4.606-4.148,10.158-6.223,16.656-6.223c5.055,0,8.899,2.104,11.533,6.314
		c1.615,2.593,2.423,5.141,2.423,7.641c0,0.824-0.089,1.663-0.265,2.517c-0.5,2.075-1.413,3.661-2.737,4.759
		c-1.413,1.16-2.914,1.739-4.502,1.739c-1.556,0-2.822-0.579-3.798-1.739c-0.641-0.762-0.961-1.677-0.961-2.746
		c0-0.274,0.061-0.747,0.183-1.418c0.305-1.525,1.205-2.913,2.7-4.164c0.945-0.793,2.059-1.327,3.34-1.602
		c-1.098-4.301-4.149-6.451-9.151-6.451c-3.883,0-7.538,1.89-10.962,5.67c-2.447,2.714-4.557,7.897-6.33,15.55L51.983,86.87
		c-0.417,1.762-0.938,3.336-1.562,4.722c4.27,0.124,8.205,0.71,11.805,1.761c3.478,1.053,6.116,1.58,7.916,1.58
		c2.654,0,4.789-0.656,6.406-1.968c-0.794-1.159-1.19-2.318-1.19-3.478c0-0.335,0.061-0.778,0.183-1.327
		c0.335-1.556,1.25-2.974,2.745-4.255c1.342-1.128,2.852-1.693,4.53-1.693c1.677,0,2.958,0.58,3.844,1.739
		c0.641,0.854,0.961,1.815,0.961,2.882c0,0.366-0.062,0.824-0.183,1.373c-0.641,3.05-2.944,5.628-6.909,7.732
		c-4.088,2.196-8.007,3.294-11.759,3.294c-1.8,0-5.155-0.534-10.066-1.602c-2.807-0.61-6.696-0.976-11.668-1.098
		c-2.044,1.8-4.377,2.7-7,2.7c-3.569,0-5.827-1.479-6.772-4.436c-0.366-1.132-0.549-2.381-0.549-3.749
		c0-1.366,0.183-2.839,0.549-4.418H33.949z"/>
</g>
<circle style="fill:none;stroke:#FFEC38;stroke-width:2;" cx="67.381" cy="66.381" r="58.843"/>
</svg>
